<svg width="19" height="14" viewBox="0 0 19 14" fill="none" xmlns="http://www.w3.org/2000/svg">
<path d="M17.5002 4.99992H0.833496M0.833496 3.49992L0.833496 9.83325C0.833496 10.7667 0.833496 11.2334 1.01515 11.5899C1.17494 11.9035 1.42991 12.1585 1.74351 12.3183C2.10003 12.4999 2.56674 12.4999 3.50016 12.4999L14.8335 12.4999C15.7669 12.4999 16.2336 12.4999 16.5901 12.3183C16.9038 12.1585 17.1587 11.9035 17.3185 11.5899C17.5002 11.2334 17.5002 10.7667 17.5002 9.83325V3.49992C17.5002 2.5665 17.5002 2.09979 17.3185 1.74327C17.1587 1.42967 16.9038 1.1747 16.5901 1.01491C16.2336 0.833253 15.7669 0.833253 14.8335 0.833253L3.50016 0.833252C2.56674 0.833252 2.10003 0.833252 1.74351 1.01491C1.42991 1.1747 1.17494 1.42966 1.01515 1.74327C0.833496 2.09979 0.833496 2.5665 0.833496 3.49992Z" stroke="#D1D5DB" stroke-width="1.66667" stroke-linecap="round" stroke-linejoin="round"/>
</svg>
