<svg width="15" height="16" viewBox="0 0 15 16" fill="none" xmlns="http://www.w3.org/2000/svg">
<path d="M0.75 4.35C0.75 3.08988 0.75 2.45982 0.995235 1.97852C1.21095 1.55516 1.55516 1.21095 1.97852 0.995235C2.45982 0.75 3.08988 0.75 4.35 0.75H10.65C11.9101 0.75 12.5402 0.75 13.0215 0.995235C13.4448 1.21095 13.789 1.55516 14.0048 1.97852C14.25 2.45982 14.25 3.08988 14.25 4.35V8.625C14.25 9.67337 14.25 10.1976 14.0787 10.611C13.8504 11.1624 13.4123 11.6004 12.861 11.8287C12.4476 12 11.9234 12 10.875 12C10.5086 12 10.3253 12 10.1554 12.0401C9.92873 12.0936 9.71766 12.1992 9.53888 12.3484C9.40479 12.4603 9.29486 12.6069 9.075 12.9L7.98 14.36C7.81716 14.5771 7.73574 14.6857 7.63593 14.7245C7.5485 14.7585 7.4515 14.7585 7.36407 14.7245C7.26426 14.6857 7.18284 14.5771 7.02 14.36L5.925 12.9C5.70514 12.6069 5.59521 12.4603 5.46112 12.3484C5.28234 12.1992 5.07127 12.0936 4.84463 12.0401C4.67465 12 4.49143 12 4.125 12C3.07663 12 2.55245 12 2.13896 11.8287C1.58765 11.6004 1.14963 11.1624 0.921271 10.611C0.75 10.1976 0.75 9.67337 0.75 8.625V4.35Z" stroke="#D1D5DB" stroke-width="1.5" stroke-linecap="round" stroke-linejoin="round"/>
</svg>
