<svg width="19" height="17" viewBox="0 0 19 17" fill="none" xmlns="http://www.w3.org/2000/svg">
<path d="M17.5002 15.8333V14.1666C17.5002 12.6134 16.4379 11.3083 15.0002 10.9383M12.0835 1.07555C13.3051 1.57004 14.1668 2.76768 14.1668 4.16659C14.1668 5.56549 13.3051 6.76313 12.0835 7.25762M13.3335 15.8333C13.3335 14.2801 13.3335 13.5035 13.0798 12.891C12.7414 12.0742 12.0925 11.4253 11.2758 11.087C10.6632 10.8333 9.88663 10.8333 8.3335 10.8333H5.8335C4.28036 10.8333 3.50379 10.8333 2.89122 11.087C2.07446 11.4253 1.42554 12.0742 1.08723 12.891C0.833496 13.5035 0.833496 14.2801 0.833496 15.8333M10.4168 4.16659C10.4168 6.00753 8.92444 7.49992 7.0835 7.49992C5.24255 7.49992 3.75016 6.00753 3.75016 4.16659C3.75016 2.32564 5.24255 0.833252 7.0835 0.833252C8.92444 0.833252 10.4168 2.32564 10.4168 4.16659Z" stroke="#D1D5DB" stroke-width="1.66667" stroke-linecap="round" stroke-linejoin="round"/>
</svg>
