<svg width="15" height="15" viewBox="0 0 15 15" fill="none" xmlns="http://www.w3.org/2000/svg">
<path d="M10.0003 4.66699V2.80033C10.0003 2.05359 10.0003 1.68022 9.855 1.395C9.72717 1.14412 9.5232 0.940148 9.27231 0.812317C8.9871 0.666992 8.61373 0.666992 7.86699 0.666992H2.80033C2.05359 0.666992 1.68022 0.666992 1.395 0.812317C1.14412 0.940148 0.940148 1.14412 0.812317 1.395C0.666992 1.68022 0.666992 2.05359 0.666992 2.80033V7.86699C0.666992 8.61373 0.666992 8.9871 0.812317 9.27231C0.940148 9.5232 1.14412 9.72717 1.395 9.855C1.68022 10.0003 2.05359 10.0003 2.80033 10.0003H4.66699M6.80033 14.0003H11.867C12.6137 14.0003 12.9871 14.0003 13.2723 13.855C13.5232 13.7272 13.7272 13.5232 13.855 13.2723C14.0003 12.9871 14.0003 12.6137 14.0003 11.867V6.80033C14.0003 6.05359 14.0003 5.68022 13.855 5.39501C13.7272 5.14412 13.5232 4.94015 13.2723 4.81232C12.9871 4.66699 12.6137 4.66699 11.867 4.66699H6.80033C6.05359 4.66699 5.68022 4.66699 5.39501 4.81232C5.14412 4.94015 4.94015 5.14412 4.81232 5.39501C4.66699 5.68022 4.66699 6.05359 4.66699 6.80033V11.867C4.66699 12.6137 4.66699 12.9871 4.81232 13.2723C4.94015 13.5232 5.14412 13.7272 5.39501 13.855C5.68022 14.0003 6.05359 14.0003 6.80033 14.0003Z" stroke="#FAFAFA" stroke-width="1.33333" stroke-linecap="round" stroke-linejoin="round"/>
</svg>
