<svg width="17" height="18" viewBox="0 0 17 18" fill="none" xmlns="http://www.w3.org/2000/svg">
<path d="M9.15208 1.24767C8.85931 1.01996 8.71293 0.906102 8.55128 0.862337C8.40866 0.82372 8.25833 0.82372 8.11571 0.862337C7.95407 0.906102 7.80768 1.01996 7.51491 1.24767L1.86299 5.64361C1.48518 5.93746 1.29628 6.08438 1.16019 6.26838C1.03963 6.43137 0.949831 6.61499 0.895186 6.81021C0.833496 7.0306 0.833496 7.26992 0.833496 7.74855V13.7777C0.833496 14.7111 0.833496 15.1778 1.01515 15.5343C1.17494 15.8479 1.42991 16.1029 1.74351 16.2627C2.10003 16.4443 2.56674 16.4443 3.50016 16.4443H5.16683C5.40018 16.4443 5.51686 16.4443 5.60599 16.3989C5.68439 16.359 5.74813 16.2952 5.78808 16.2168C5.8335 16.1277 5.8335 16.011 5.8335 15.7777V10.2777C5.8335 9.81095 5.8335 9.57759 5.92432 9.39933C6.00422 9.24253 6.1317 9.11504 6.2885 9.03515C6.46676 8.94432 6.70012 8.94432 7.16683 8.94432H9.50016C9.96687 8.94432 10.2002 8.94432 10.3785 9.03515C10.5353 9.11504 10.6628 9.24253 10.7427 9.39933C10.8335 9.57759 10.8335 9.81095 10.8335 10.2777V15.7777C10.8335 16.011 10.8335 16.1277 10.8789 16.2168C10.9189 16.2952 10.9826 16.359 11.061 16.3989C11.1501 16.4443 11.2668 16.4443 11.5002 16.4443H13.1668C14.1003 16.4443 14.567 16.4443 14.9235 16.2627C15.2371 16.1029 15.4921 15.8479 15.6518 15.5343C15.8335 15.1778 15.8335 14.7111 15.8335 13.7777V7.74855C15.8335 7.26992 15.8335 7.0306 15.7718 6.81021C15.7172 6.61499 15.6274 6.43137 15.5068 6.26838C15.3707 6.08438 15.1818 5.93746 14.804 5.64361L9.15208 1.24767Z" stroke="#FAFAFA" stroke-width="1.66667" stroke-linecap="round" stroke-linejoin="round"/>
</svg>
