<svg width="15" height="15" viewBox="0 0 15 15" fill="none" xmlns="http://www.w3.org/2000/svg">
<g clip-path="url(#clip0_17657_12008)">
<path d="M9.49998 4.75V2.96875L11.2812 1.1875L11.875 2.375L13.0625 2.96875L11.2812 4.75H9.49998ZM9.49998 4.75L7.12498 7.12497M13.0625 7.125C13.0625 10.4042 10.4042 13.0625 7.125 13.0625C3.84581 13.0625 1.1875 10.4042 1.1875 7.125C1.1875 3.84581 3.84581 1.1875 7.125 1.1875M10.0938 7.125C10.0938 8.7646 8.7646 10.0938 7.125 10.0938C5.4854 10.0938 4.15625 8.7646 4.15625 7.125C4.15625 5.4854 5.4854 4.15625 7.125 4.15625" stroke="#FAFAFA" stroke-width="1.1875" stroke-linecap="round" stroke-linejoin="round"/>
</g>
<defs>
<clipPath id="clip0_17657_12008">
<rect width="14.25" height="14.25" fill="white"/>
</clipPath>
</defs>
</svg>
