<svg width="19" height="17" viewBox="0 0 19 17" fill="none" xmlns="http://www.w3.org/2000/svg">
<path d="M2.72691 15.6063L8.22402 10.1091C8.55404 9.77913 8.71904 9.61413 8.90931 9.5523C9.07668 9.49792 9.25697 9.49792 9.42434 9.5523C9.61462 9.61413 9.77963 9.77914 10.1096 10.1091L15.5701 15.5696M10.8335 10.833L13.224 8.44248C13.554 8.11247 13.719 7.94746 13.9093 7.88564C14.0767 7.83126 14.257 7.83126 14.4243 7.88564C14.6146 7.94746 14.7796 8.11247 15.1096 8.44248L17.5002 10.833M7.50016 5.83301C7.50016 6.75348 6.75397 7.49967 5.8335 7.49967C4.91302 7.49967 4.16683 6.75348 4.16683 5.83301C4.16683 4.91253 4.91302 4.16634 5.8335 4.16634C6.75397 4.16634 7.50016 4.91253 7.50016 5.83301ZM4.8335 15.833H13.5002C14.9003 15.833 15.6004 15.833 16.1351 15.5605C16.6055 15.3208 16.988 14.9384 17.2277 14.468C17.5002 13.9332 17.5002 13.2331 17.5002 11.833V4.83301C17.5002 3.43288 17.5002 2.73281 17.2277 2.19803C16.988 1.72763 16.6055 1.34517 16.1351 1.10549C15.6004 0.833008 14.9003 0.833008 13.5002 0.833008H4.8335C3.43336 0.833008 2.7333 0.833008 2.19852 1.10549C1.72811 1.34517 1.34566 1.72763 1.10598 2.19803C0.833496 2.73281 0.833496 3.43288 0.833496 4.83301V11.833C0.833496 13.2331 0.833496 13.9332 1.10598 14.468C1.34566 14.9384 1.72811 15.3208 2.19852 15.5605C2.7333 15.833 3.43336 15.833 4.8335 15.833Z" stroke="#D1D5DB" stroke-width="1.66667" stroke-linecap="round" stroke-linejoin="round"/>
</svg>
