<svg width="15" height="16" viewBox="0 0 15 16" fill="none" xmlns="http://www.w3.org/2000/svg">
<path d="M3.75 4.875H7.5M3.75 7.5H9.75M3.75 12V13.7516C3.75 14.1513 3.75 14.3511 3.83192 14.4537C3.90317 14.543 4.0112 14.5949 4.1254 14.5948C4.25672 14.5946 4.41275 14.4698 4.72482 14.2201L6.51391 12.7889C6.87939 12.4965 7.06213 12.3503 7.26561 12.2463C7.44615 12.1541 7.63832 12.0867 7.83691 12.0459C8.06075 12 8.29477 12 8.76281 12H10.65C11.9101 12 12.5402 12 13.0215 11.7548C13.4448 11.539 13.789 11.1948 14.0048 10.7715C14.25 10.2902 14.25 9.66012 14.25 8.4V4.35C14.25 3.08988 14.25 2.45982 14.0048 1.97852C13.789 1.55516 13.4448 1.21095 13.0215 0.995235C12.5402 0.75 11.9101 0.75 10.65 0.75H4.35C3.08988 0.75 2.45982 0.75 1.97852 0.995235C1.55516 1.21095 1.21095 1.55516 0.995235 1.97852C0.75 2.45982 0.75 3.08988 0.75 4.35V9C0.75 9.69748 0.75 10.0462 0.826667 10.3323C1.03472 11.1088 1.6412 11.7153 2.41766 11.9233C2.70378 12 3.05252 12 3.75 12Z" stroke="#9CA3AF" stroke-width="1.5" stroke-linecap="round" stroke-linejoin="round"/>
</svg>
