<svg width="18" height="18" viewBox="0 0 18 18" fill="none" xmlns="http://www.w3.org/2000/svg">
<path d="M7.60182 10.091L16.3518 1.34096M7.70813 10.3644L9.89823 15.996C10.0912 16.4921 10.1876 16.7402 10.3266 16.8126C10.4471 16.8754 10.5907 16.8755 10.7112 16.8129C10.8503 16.7406 10.9471 16.4926 11.1406 15.9968L16.6326 1.92363C16.8073 1.47598 16.8946 1.25215 16.8468 1.10913C16.8053 0.984923 16.7079 0.88745 16.5836 0.845956C16.4406 0.798176 16.2168 0.885523 15.7692 1.06022L1.69603 6.55217C1.20013 6.74569 0.952186 6.84245 0.879928 6.98153C0.817288 7.10211 0.817372 7.24565 0.880154 7.36615C0.952576 7.50515 1.20064 7.60162 1.69676 7.79455L7.32843 9.98465C7.42913 10.0238 7.47949 10.0434 7.52189 10.0736C7.55947 10.1004 7.59234 10.1333 7.61914 10.1709C7.64939 10.2133 7.66897 10.2636 7.70813 10.3644Z" stroke="#FAFAFA" stroke-width="1.66667" stroke-linecap="round" stroke-linejoin="round"/>
</svg>
