<svg width="15" height="17" viewBox="0 0 15 17" fill="none" xmlns="http://www.w3.org/2000/svg">
<path d="M4.9425 9.3825L10.065 12.3675M10.0575 4.1325L4.9425 7.1175M14.25 3C14.25 4.24264 13.2426 5.25 12 5.25C10.7574 5.25 9.75 4.24264 9.75 3C9.75 1.75736 10.7574 0.75 12 0.75C13.2426 0.75 14.25 1.75736 14.25 3ZM5.25 8.25C5.25 9.49264 4.24264 10.5 3 10.5C1.75736 10.5 0.75 9.49264 0.75 8.25C0.75 7.00736 1.75736 6 3 6C4.24264 6 5.25 7.00736 5.25 8.25ZM14.25 13.5C14.25 14.7426 13.2426 15.75 12 15.75C10.7574 15.75 9.75 14.7426 9.75 13.5C9.75 12.2574 10.7574 11.25 12 11.25C13.2426 11.25 14.25 12.2574 14.25 13.5Z" stroke="#D1D5DB" stroke-width="1.5" stroke-linecap="round" stroke-linejoin="round"/>
</svg>
