<svg width="19" height="19" viewBox="0 0 19 19" fill="none" xmlns="http://www.w3.org/2000/svg">
<path d="M7.50016 13.8822V15.8334C7.50016 16.7538 8.24635 17.5 9.16683 17.5C10.0873 17.5 10.8335 16.7538 10.8335 15.8334V13.8822M9.16683 0.833374V1.66671M1.66683 9.16671H0.833496M3.75016 3.75004L3.25008 3.24996M14.5835 3.75004L15.0837 3.24996M17.5002 9.16671H16.6668M14.1668 9.16671C14.1668 11.9281 11.9283 14.1667 9.16683 14.1667C6.40541 14.1667 4.16683 11.9281 4.16683 9.16671C4.16683 6.40528 6.40541 4.16671 9.16683 4.16671C11.9283 4.16671 14.1668 6.40528 14.1668 9.16671Z" stroke="#D1D5DB" stroke-width="1.66667" stroke-linecap="round" stroke-linejoin="round"/>
</svg>
