<svg width="28" height="28" viewBox="0 0 28 28" fill="none" xmlns="http://www.w3.org/2000/svg">
<rect width="28" height="28" rx="2" fill="#2D9F75"/>
<g clip-path="url(#clip0_17656_2637)">
<path d="M12.3337 18.7156V20.6667C12.3337 21.5872 13.0799 22.3334 14.0003 22.3334C14.9208 22.3334 15.667 21.5872 15.667 20.6667V18.7156M14.0003 5.66675V6.50008M6.50033 14.0001H5.66699M8.58366 8.58341L8.08358 8.08333M19.417 8.58341L19.9172 8.08333M22.3337 14.0001H21.5003M19.0003 14.0001C19.0003 16.7615 16.7617 19.0001 14.0003 19.0001C11.2389 19.0001 9.00033 16.7615 9.00033 14.0001C9.00033 11.2387 11.2389 9.00008 14.0003 9.00008C16.7617 9.00008 19.0003 11.2387 19.0003 14.0001Z" stroke="#D1D5DB" stroke-width="1.66667" stroke-linecap="round" stroke-linejoin="round"/>
</g>
<defs>
<clipPath id="clip0_17656_2637">
<rect width="20" height="20" fill="white" transform="translate(4 4)"/>
</clipPath>
</defs>
</svg>
