<svg width="17" height="17" viewBox="0 0 17 17" fill="none" xmlns="http://www.w3.org/2000/svg">
<path d="M15.8335 15.8334H2.16683C1.70012 15.8334 1.46676 15.8334 1.2885 15.7425C1.1317 15.6627 1.00422 15.5352 0.924324 15.3784C0.833496 15.2001 0.833496 14.9668 0.833496 14.5V0.833374M15.0002 5.00004L11.7344 8.48559C11.6107 8.61768 11.5488 8.68373 11.4741 8.71787C11.4082 8.748 11.3356 8.76043 11.2635 8.75393C11.1817 8.74656 11.1014 8.70485 10.9407 8.62144L8.22626 7.21198C8.06561 7.12856 7.98529 7.08685 7.90353 7.07949C7.83136 7.07298 7.75875 7.08541 7.69286 7.11554C7.6182 7.14968 7.55632 7.21573 7.43255 7.34783L4.16683 10.8334" stroke="#D1D5DB" stroke-width="1.66667" stroke-linecap="round" stroke-linejoin="round"/>
</svg>
