<svg width="17" height="17" viewBox="0 0 17 17" fill="none" xmlns="http://www.w3.org/2000/svg">
<path d="M6.25016 5.80412C6.25016 5.40638 6.25016 5.20751 6.33328 5.09649C6.40571 4.99974 6.51659 4.9392 6.63714 4.93059C6.77548 4.92071 6.94277 5.02825 7.27733 5.24333L11.2112 7.77222C11.5015 7.95886 11.6466 8.05217 11.6968 8.17083C11.7406 8.27451 11.7406 8.3915 11.6968 8.49518C11.6466 8.61384 11.5015 8.70716 11.2112 8.89379L7.27734 11.4227C6.94277 11.6378 6.77548 11.7453 6.63714 11.7354C6.51659 11.7268 6.40571 11.6663 6.33328 11.5695C6.25016 11.4585 6.25016 11.2596 6.25016 10.8619V5.80412Z" stroke="#D1D5DB" stroke-width="1.66667" stroke-linecap="round" stroke-linejoin="round"/>
<path d="M0.833496 4.83301C0.833496 3.43288 0.833496 2.73281 1.10598 2.19803C1.34566 1.72763 1.72811 1.34517 2.19852 1.10549C2.7333 0.833008 3.43336 0.833008 4.8335 0.833008H11.8335C13.2336 0.833008 13.9337 0.833008 14.4685 1.10549C14.9389 1.34517 15.3213 1.72763 15.561 2.19803C15.8335 2.73281 15.8335 3.43288 15.8335 4.83301V11.833C15.8335 13.2331 15.8335 13.9332 15.561 14.468C15.3213 14.9384 14.9389 15.3208 14.4685 15.5605C13.9337 15.833 13.2336 15.833 11.8335 15.833H4.8335C3.43336 15.833 2.7333 15.833 2.19852 15.5605C1.72811 15.3208 1.34566 14.9384 1.10598 14.468C0.833496 13.9332 0.833496 13.2331 0.833496 11.833V4.83301Z" stroke="#D1D5DB" stroke-width="1.66667" stroke-linecap="round" stroke-linejoin="round"/>
</svg>
