<svg width="19" height="15" viewBox="0 0 19 15" fill="none" xmlns="http://www.w3.org/2000/svg">
<path d="M15.833 5.41671V3.50004C15.833 2.56662 15.833 2.09991 15.6514 1.74339C15.4916 1.42979 15.2366 1.17482 14.923 1.01503C14.5665 0.833377 14.0998 0.833376 13.1663 0.833374H3.49968C2.56625 0.833374 2.09954 0.833374 1.74302 1.01503C1.42942 1.17482 1.17445 1.42979 1.01466 1.74339C0.833008 2.09991 0.833008 2.56662 0.833008 3.50004V11.5C0.833008 12.4335 0.833008 12.9002 1.01466 13.2567C1.17445 13.5703 1.42942 13.8253 1.74302 13.985C2.09954 14.1667 2.56625 14.1667 3.49967 14.1667L13.1663 14.1667C14.0998 14.1667 14.5665 14.1667 14.923 13.9851C15.2366 13.8253 15.4916 13.5703 15.6514 13.2567C15.833 12.9002 15.833 12.4335 15.833 11.5V9.58337M11.6663 7.50004C11.6663 7.11283 11.6663 6.91922 11.6984 6.75822C11.8299 6.09707 12.3467 5.58024 13.0079 5.44873C13.1689 5.41671 13.3625 5.41671 13.7497 5.41671H15.4163C15.8036 5.41671 15.9972 5.41671 16.1582 5.44873C16.8193 5.58024 17.3361 6.09707 17.4676 6.75822C17.4997 6.91922 17.4997 7.11283 17.4997 7.50004C17.4997 7.88725 17.4997 8.08086 17.4676 8.24186C17.3361 8.90301 16.8193 9.41984 16.1582 9.55135C15.9972 9.58337 15.8036 9.58337 15.4163 9.58337H13.7497C13.3625 9.58337 13.1689 9.58337 13.0079 9.55135C12.3467 9.41984 11.8299 8.90301 11.6984 8.24186C11.6663 8.08086 11.6663 7.88725 11.6663 7.50004Z" stroke="#FAFAFA" stroke-width="1.66667" stroke-linecap="round" stroke-linejoin="round"/>
</svg>
